<svg width="815" height="1387" viewBox="0 0 815 1387" fill="none" xmlns="http://www.w3.org/2000/svg">
<path d="M316.755 5H316.685L316.615 5.00198C261.919 6.54045 183.379 17.2358 118.917 108.011C54.8313 198.256 5.14942 367.015 5.14941 682.867C5.14941 938.765 24.8835 1113.26 73.5615 1223.87C97.9644 1279.32 129.75 1318.99 170.184 1344.73C210.605 1370.47 259.212 1382 316.755 1382H502.388C557.705 1382 604.904 1371.63 644.466 1347.33C684.057 1323.03 715.53 1285.07 739.886 1230.73C788.456 1122.38 809.149 947.864 809.149 682.867C809.149 411.148 779.79 241.88 726.779 140.421C700.203 89.5544 667.607 55.5822 629.692 34.3848C591.813 13.2069 549.019 5 502.388 5H316.755Z" fill="#C6803B" stroke="black" stroke-width="10"/>
<path d="M316.755 1377C89.2505 1377 10.1495 1194.66 10.1495 682.867C10.1495 461.603 -2.5916 1058.9 207.149 1243.5C385.149 1385 632.331 1377 316.755 1377Z" fill="#B45A25"/>
<path d="M454.589 1377H365.046C255.305 1377 217.149 1194.66 217.149 682.867C217.149 51.7585 313.003 13.0347 365.046 10H454.589C543.447 10 600.149 139.674 600.149 682.867C600.149 1212.87 560.137 1377 454.589 1377Z" fill="#EAD0B6" stroke="black" stroke-width="10"/>
</svg>
