<svg width="814" height="1387" viewBox="0 0 814 1387" fill="none" xmlns="http://www.w3.org/2000/svg">
<path d="M316.606 4.99997H316.535L316.465 5.00195C261.769 6.54042 183.229 17.2358 118.767 108.011C54.6818 198.256 5.00001 367.015 5 682.867C5 938.765 24.7341 1113.26 73.4121 1223.87C97.815 1279.32 129.6 1318.99 170.035 1344.73C210.456 1370.47 259.063 1382 316.606 1382H502.239C557.555 1382 604.754 1371.63 644.316 1347.33C683.908 1323.03 715.381 1285.07 739.736 1230.73C788.306 1122.38 809 947.864 809 682.867C809 411.148 779.641 241.88 726.63 140.421C700.053 89.5543 667.457 55.5822 629.543 34.3847C591.664 13.2069 548.87 4.99997 502.239 4.99997H316.606Z" fill="#F5B03A" stroke="black" stroke-width="10"/>
<path d="M316.606 1377C89.1011 1377 10.0002 1194.66 10.0002 682.867C10.0002 461.603 -2.74094 1058.9 207 1243.5C385 1385 632.182 1377 316.606 1377Z" fill="#ED892B"/>
<path d="M454.44 1377H364.897C255.156 1377 217 1194.66 217 682.867C217 51.7585 312.854 13.0347 364.897 9.99997H454.44C543.298 9.99997 600 139.674 600 682.867C600 1212.87 559.988 1377 454.44 1377Z" fill="#FFDFA8" stroke="black" stroke-width="10"/>
</svg>
