<svg width="814" height="1599" viewBox="0 0 814 1599" fill="none" xmlns="http://www.w3.org/2000/svg">
<path d="M316.606 111H316.535L316.465 111.002C261.769 112.54 183.229 123.236 118.767 214.011C54.6818 304.256 5.00001 473.015 5 788.867C5 1044.77 24.7341 1219.26 73.4121 1329.87C97.815 1385.32 129.6 1424.99 170.035 1450.73C210.456 1476.47 259.063 1488 316.606 1488H502.239C557.555 1488 604.754 1477.63 644.316 1453.33C683.908 1429.03 715.381 1391.07 739.736 1336.73C788.306 1228.38 809 1053.86 809 788.867C809 517.148 779.641 347.88 726.63 246.421C700.053 195.554 667.457 161.582 629.543 140.385C591.664 119.207 548.87 111 502.239 111H316.606Z" fill="#F5B03A" stroke="black" stroke-width="10"/>
<path d="M316.606 1483C89.1011 1483 10.0002 1300.66 10.0002 788.867C10.0002 567.603 -2.74094 1164.9 207 1349.5C385 1491 632.182 1483 316.606 1483Z" fill="#ED892B"/>
<path d="M454.44 1483H364.897C255.156 1483 217 1300.66 217 788.867C217 157.759 312.854 119.035 364.897 116H454.44C543.298 116 600 245.674 600 788.867C600 1318.87 559.988 1483 454.44 1483Z" fill="#FFDFA8" stroke="black" stroke-width="10"/>
<path d="M631.339 304.586C608.643 365.335 542.531 593.083 542.531 811.151C542.531 947.386 554.606 1040.26 574.7 1115.77C594.798 1191.29 622.966 1249.66 655.522 1317.09L656.055 1318.19C682.641 1373.26 688.149 1427.25 681.027 1471.9C673.932 1516.39 654.191 1552.11 629.664 1569.99C567.488 1615.33 456.442 1600.21 393.254 1484.53C315.37 1341.95 237 1152.34 237 828.75C237 571.902 296.223 337.723 376.112 183.687C406.84 124.44 444.659 70.0541 487.347 37.405C508.738 21.0443 531.548 9.99172 555.453 6.69567C579.438 3.38858 604.169 7.94291 629.195 22.2165C652.061 35.2585 668.09 50.4712 677.96 68.4994C687.838 86.5407 691.309 106.964 689.803 130.006C686.816 175.71 664.127 232.802 631.339 304.586Z" fill="#D21C02" stroke="black" stroke-width="10"/>
<path d="M626.718 1565.95C725.5 1493.92 651.552 1320.37 651.552 1320.37C683 1482.13 549 1535.17 421.5 1402.67C300.79 1277.23 266 1141.67 266 1141.67C266 1141.67 307.968 1352.29 406 1497.67C479.5 1606.67 567.463 1609.16 626.718 1565.95Z" fill="#A70101"/>
<path d="M627 26.6691C731.5 74.6691 662 215.169 662 215.169C662 110.169 622 39.6691 547 52.1691C408.817 75.1996 313 350.669 313 350.669C313 350.669 358.444 200.169 402.5 139.169C519.434 -22.7394 578.395 4.34348 626.918 26.6313L627 26.6691Z" fill="#A70101"/>
<path d="M579 201.693C470.477 194.788 291.741 219.647 444.979 374.327C636.528 567.678 493.657 531.267 410.842 539.428C328.027 547.589 190.846 636.104 384.923 737.801C579 839.498 479.117 904.157 384.923 927.385C290.729 950.612 214.236 1105.67 410.842 1151.5C607.448 1197.32 568.253 1268.26 476.588 1319.11C384.923 1369.96 345.096 1461.61 544.863 1503.67" stroke="#F6D117" stroke-width="25" stroke-linecap="round"/>
<path d="M642.688 1501.9L617.003 1519.25M591.319 1536.61L617.003 1519.25M617.003 1519.25L585.628 1513.91M617.003 1519.25L644.93 1527.54M617.003 1519.25L610.546 1550.78L622.252 1493.98" stroke="black" stroke-width="3" stroke-linecap="round"/>
<path d="M635.142 68.1264L604.143 68.212M573.143 68.2977L604.143 68.212M604.143 68.212L581.082 46.2757M604.143 68.212L622.705 90.6608M604.143 68.212L581.205 90.7755L622.593 50.161" stroke="black" stroke-width="3" stroke-linecap="round"/>
</svg>
