<svg width="576" height="1599" viewBox="0 0 576 1599" fill="none" xmlns="http://www.w3.org/2000/svg">
<path d="M511.339 304.586C488.643 365.335 422.531 593.083 422.531 811.151C422.531 947.386 434.606 1040.26 454.7 1115.77C474.798 1191.29 502.966 1249.66 535.522 1317.09L536.055 1318.19C562.641 1373.26 568.149 1427.25 561.027 1471.9C553.932 1516.39 534.191 1552.11 509.664 1569.99C447.488 1615.33 336.442 1600.21 273.254 1484.53C195.37 1341.95 117 1152.34 117 828.75C117 571.902 176.223 337.723 256.112 183.687C286.84 124.44 324.659 70.0541 367.347 37.405C388.738 21.0443 411.548 9.99172 435.453 6.69567C459.438 3.38858 484.169 7.94291 509.195 22.2165C532.061 35.2585 548.09 50.4712 557.96 68.4994C567.838 86.5407 571.309 106.964 569.803 130.006C566.816 175.71 544.127 232.802 511.339 304.586Z" fill="#D21C02" stroke="black" stroke-width="10"/>
<path d="M506.718 1565.95C605.5 1493.92 531.552 1320.37 531.552 1320.37C563 1482.13 429 1535.17 301.5 1402.67C180.79 1277.23 146 1141.67 146 1141.67C146 1141.67 187.968 1352.29 286 1497.67C359.5 1606.67 447.463 1609.16 506.718 1565.95Z" fill="#A70101"/>
<path d="M507 26.6691C611.5 74.6691 542 215.169 542 215.169C542 110.169 502 39.6691 427 52.1691C288.817 75.1996 193 350.669 193 350.669C193 350.669 238.444 200.169 282.5 139.169C399.434 -22.7394 458.395 4.34348 506.918 26.6313L507 26.6691Z" fill="#A70101"/>
<path d="M459 201.693C350.477 194.788 171.741 219.647 324.979 374.327C516.528 567.678 373.657 531.267 290.842 539.428C208.027 547.589 70.8457 636.104 264.923 737.801C459 839.498 359.117 904.157 264.923 927.385C170.729 950.612 94.2361 1105.67 290.842 1151.5C487.448 1197.32 448.253 1268.26 356.588 1319.11C264.923 1369.96 225.096 1461.61 424.863 1503.67" stroke="#F6D117" stroke-width="25" stroke-linecap="round"/>
<path d="M522.688 1501.9L497.003 1519.25M471.319 1536.61L497.003 1519.25M497.003 1519.25L465.628 1513.91M497.003 1519.25L524.93 1527.54M497.003 1519.25L490.546 1550.78L502.252 1493.98" stroke="black" stroke-width="3" stroke-linecap="round"/>
<path d="M515.142 68.1264L484.143 68.212M453.143 68.2977L484.143 68.212M484.143 68.212L461.082 46.2757M484.143 68.212L502.705 90.6608M484.143 68.212L461.205 90.7755L502.593 50.161" stroke="black" stroke-width="3" stroke-linecap="round"/>
</svg>
