<svg width="464" height="1599" viewBox="0 0 464 1599" fill="none" xmlns="http://www.w3.org/2000/svg">
<path d="M399.339 304.586C376.643 365.335 310.531 593.083 310.531 811.151C310.531 947.386 322.606 1040.26 342.7 1115.77C362.798 1191.29 390.966 1249.66 423.522 1317.09L424.055 1318.19C450.641 1373.26 456.149 1427.25 449.027 1471.9C441.932 1516.39 422.191 1552.11 397.664 1569.99C335.488 1615.33 224.442 1600.21 161.254 1484.53C83.3702 1341.95 4.99997 1152.34 4.99997 828.75C4.99997 571.902 64.2232 337.723 144.112 183.687C174.84 124.44 212.659 70.0541 255.347 37.405C276.738 21.0443 299.548 9.99172 323.453 6.69567C347.438 3.38858 372.169 7.94291 397.195 22.2165C420.061 35.2585 436.09 50.4712 445.96 68.4994C455.838 86.5407 459.309 106.964 457.803 130.006C454.816 175.71 432.127 232.802 399.339 304.586Z" fill="#D21C02" stroke="black" stroke-width="10"/>
<path d="M394.718 1565.95C493.5 1493.92 419.552 1320.37 419.552 1320.37C451 1482.13 317 1535.17 189.5 1402.67C68.7902 1277.23 34 1141.67 34 1141.67C34 1141.67 75.9677 1352.29 174 1497.67C247.5 1606.67 335.463 1609.16 394.718 1565.95Z" fill="#A70101"/>
<path d="M395 26.6691C499.5 74.6691 430 215.169 430 215.169C430 110.169 390 39.6691 315 52.1691C176.817 75.1996 81 350.669 81 350.669C81 350.669 126.444 200.169 170.5 139.169C287.434 -22.7394 346.395 4.34348 394.918 26.6313L395 26.6691Z" fill="#A70101"/>
<path d="M347 201.693C238.477 194.788 59.7406 219.647 212.979 374.327C404.528 567.678 261.657 531.267 178.842 539.428C96.0273 547.589 -41.1543 636.104 152.923 737.801C347 839.498 247.117 904.157 152.923 927.385C58.7291 950.612 -17.7639 1105.67 178.842 1151.5C375.448 1197.32 336.253 1268.26 244.588 1319.11C152.923 1369.96 113.096 1461.61 312.863 1503.67" stroke="#F6D117" stroke-width="25" stroke-linecap="round"/>
<path d="M410.688 1501.9L385.003 1519.25M359.319 1536.61L385.003 1519.25M385.003 1519.25L353.628 1513.91M385.003 1519.25L412.93 1527.54M385.003 1519.25L378.546 1550.78L390.252 1493.98" stroke="black" stroke-width="3" stroke-linecap="round"/>
<path d="M403.142 68.1264L372.143 68.212M341.143 68.2977L372.143 68.212M372.143 68.212L349.082 46.2757M372.143 68.212L390.705 90.6608M372.143 68.212L349.205 90.7755L390.593 50.161" stroke="black" stroke-width="3" stroke-linecap="round"/>
</svg>
